<svg width="52" height="52" viewBox="0 0 52 52" fill="none" xmlns="http://www.w3.org/2000/svg">
<path d="M32.4635 4.29688L33.6307 9.47861C34.6209 13.8739 38.0531 17.3062 42.4484 18.2963L47.6302 19.4635L42.4484 20.6308C38.0531 21.6209 34.6209 25.0531 33.6307 29.4484L32.4635 34.6302L31.2964 29.4484C30.3062 25.0531 26.874 21.6209 22.4787 20.6308L17.2969 19.4635L22.4787 18.2963C26.8738 17.3062 30.3062 13.8739 31.2964 9.47863L32.4635 4.29688Z" stroke="white" stroke-width="3" stroke-linejoin="round"/>
<path d="M15.1302 26L15.964 29.7013C16.6712 32.8406 19.1228 35.2924 22.2622 35.9996L25.9635 36.8333L22.2622 37.6671C19.1228 38.3743 16.6712 40.8258 15.964 43.9653L15.1302 47.6667L14.2965 43.9653C13.5893 40.8258 11.1376 38.3743 7.99813 37.6671L4.29688 36.8333L7.99813 35.9996C11.1376 35.2924 13.5893 32.8408 14.2965 29.7013L15.1302 26Z" stroke="white" stroke-width="3" stroke-linejoin="round"/>
</svg>
