<svg width="52" height="52" viewBox="0 0 52 52" fill="none" xmlns="http://www.w3.org/2000/svg">
<rect width="52" height="52" rx="26" fill="#15234E"/>
<path d="M16 22.2143L28.8571 22.2143M28.8571 22.2143C28.8571 23.9895 30.2962 25.4286 32.0714 25.4286C33.8466 25.4286 35.2857 23.9895 35.2857 22.2143C35.2857 20.4391 33.8466 19 32.0714 19C30.2962 19 28.8571 20.4391 28.8571 22.2143ZM22.4286 30.7857L35.2857 30.7857M22.4286 30.7857C22.4286 32.5609 20.9895 34 19.2143 34C17.4391 34 16 32.5609 16 30.7857C16 29.0105 17.4391 27.5714 19.2143 27.5714C20.9895 27.5714 22.4286 29.0105 22.4286 30.7857Z" stroke="white" stroke-width="2" stroke-linecap="round" stroke-linejoin="round"/>
</svg>
