<svg width="52" height="52" viewBox="0 0 52 52" fill="none" xmlns="http://www.w3.org/2000/svg">
<rect width="52" height="52" rx="26" fill="#15234E"/>
<path d="M34.6 24.35V20.28C34.6 18.4318 34.6 17.5077 34.2403 16.8018C33.9239 16.1809 33.4191 15.6761 32.7982 15.3597C32.0923 15 31.1682 15 29.32 15H22.28C20.4318 15 19.5077 15 18.8018 15.3597C18.1809 15.6761 17.6761 16.1809 17.3597 16.8018C17 17.5077 17 18.4318 17 20.28V31.72C17 33.5682 17 34.4923 17.3597 35.1982C17.6761 35.8191 18.1809 36.3239 18.8018 36.6403C19.5077 37 20.4318 37 22.28 37H25.8M32.4 35.9V29.3M29.1 32.6H35.7" stroke="white" stroke-width="2.2" stroke-linecap="round" stroke-linejoin="round"/>
</svg>
