<svg width="52" height="52" viewBox="0 0 52 52" fill="none" xmlns="http://www.w3.org/2000/svg">
<rect width="52" height="52" rx="26" fill="#15234E"/>
<path d="M23.065 16.7282V15M18.5263 18.5263L17.3043 17.3043M18.5263 27.6736L17.3043 28.8956M27.6736 18.5263L28.8956 17.3043M16.7282 23.065H15M30.9739 31.3484L28.103 36.6799C27.775 37.289 27.6111 37.5935 27.4138 37.6706C27.2425 37.7374 27.0497 37.7185 26.8947 37.6197C26.7161 37.5059 26.6143 37.1754 26.4106 36.5143L22.4258 23.578C22.2594 23.0379 22.1762 22.7679 22.2432 22.5855C22.3015 22.4267 22.4267 22.3015 22.5855 22.2432C22.7679 22.1762 23.0379 22.2594 23.578 22.4258L36.5142 26.4106C37.1753 26.6143 37.5059 26.7161 37.6197 26.8947C37.7185 27.0498 37.7373 27.2426 37.6705 27.4138C37.5935 27.6111 37.2889 27.7751 36.6799 28.1031L31.3484 30.9739C31.2579 31.0226 31.2127 31.047 31.173 31.0783C31.1379 31.1061 31.1061 31.1379 31.0783 31.173C31.047 31.2127 31.0226 31.2579 30.9739 31.3484Z" stroke="white" stroke-width="2" stroke-linecap="round" stroke-linejoin="round"/>
</svg>
