<svg width="960" height="706" viewBox="0 0 960 706" fill="none" xmlns="http://www.w3.org/2000/svg">
<g clip-path="url(#clip0_722_5235)">
<g filter="url(#filter0_f_722_5235)">
<path d="M706.853 -635.026C661.189 -695.501 410.686 -583.323 147.34 -384.471C-116.006 -185.618 -379.345 -199.031 -466.658 -77.0894C-479.872 139.87 49.3606 33.3813 312.707 -165.471C576.053 -364.324 752.518 -574.551 706.853 -635.026Z" fill="#F0ECEE"/>
<path d="M735.899 -596.546C690.234 -657.021 439.732 -544.844 176.386 -345.991C-195.119 -0.227843 -378.785 -151.807 -403.428 -19.5227C-450.943 46.8377 -161.404 283.221 341.752 -126.992C605.098 -325.845 781.564 -536.071 735.899 -596.546Z" fill="#FEEEF2"/>
<path d="M771.644 -549.182C725.979 -609.657 475.477 -497.48 212.131 -298.628C-51.2155 -99.7748 -453.888 103.579 -431.286 207.736C-402.154 341.986 114.151 119.224 377.497 -79.6283C640.843 -278.481 817.308 -488.708 771.644 -549.182Z" fill="#FEDDE5"/>
<path d="M804.641 -510.902C758.977 -571.377 493.115 -447.602 229.769 -248.749C-33.5767 -49.8967 -210.042 160.33 -164.378 220.805C-118.713 281.28 265.569 147.077 617.486 264.715C1129.24 -5.53809 1276.71 -76.6287 804.641 -510.902Z" fill="#C9DAFD"/>
<path d="M558.353 -216.966C466.143 -241.45 378.228 -244.232 200.455 -151.987C99.2864 -99.4911 -157.132 282.774 -111.467 343.249C-65.8022 403.724 203.427 193.997 555.345 311.636C1092.16 190.705 911.637 -123.161 558.353 -216.966Z" fill="#D3E5FF"/>
<path d="M582.237 32.0629C473.834 -111.497 30.6796 48.266 -125.632 166.297C-281.943 284.327 -92.2186 315.93 16.1836 459.49C124.586 603.05 339.178 623.745 495.49 505.715C1115.92 112.351 690.639 175.623 582.237 32.0629Z" fill="#D1EAFB"/>
</g>
<g filter="url(#filter1_f_722_5235)">
<path d="M1176.08 144.064C1154.41 71.4494 880.5 89.0779 564.289 183.439C248.078 277.8 6.00422 173.263 -118.397 257.033C-206.55 455.717 326.549 540.762 642.76 446.401C958.971 352.04 1197.74 216.679 1176.08 144.064Z" fill="#F0ECEE"/>
<path d="M1189.85 190.262C1168.19 117.647 894.28 135.276 578.068 229.637C109.202 423.885 -9.96186 217.707 -79.252 333.055C-146.951 378.643 41.8023 701.26 656.539 492.599C972.75 398.238 1211.52 262.877 1189.85 190.262Z" fill="#FEEEF2"/>
<path d="M1206.81 247.128C1185.14 174.513 911.233 192.142 595.021 286.503C278.81 380.864 -169.527 430.785 -184.724 536.276C-204.312 672.247 357.281 643.826 673.492 549.465C989.703 455.104 1228.48 319.743 1206.81 247.128Z" fill="#FEDDE5"/>
<path d="M1224.36 294.522C1202.69 221.907 910.343 245.039 594.132 339.4C277.921 433.761 39.1474 569.121 60.8165 641.736C82.4857 714.351 489.439 722.805 778.114 955.939C1352.03 881.427 1515.04 866.316 1224.36 294.522Z" fill="#C9DAFD"/>
<path d="M890.923 483.935C813.07 428.79 731.662 395.479 532.867 419.831C419.735 433.69 45.9609 702.334 67.6301 774.949C89.2992 847.564 414.821 745.069 703.496 978.203C1248.74 1052.36 1189.2 695.215 890.923 483.935Z" fill="#D3E5FF"/>
<path d="M826.337 725.625C774.897 553.247 303.85 548.183 116.161 604.192C-71.5292 660.201 95.212 756.072 146.652 928.451C198.092 1100.83 391.944 1195.17 579.634 1139.16C1298.38 987.242 877.776 898.004 826.337 725.625Z" fill="#D1EAFB"/>
</g>
</g>
<defs>
<filter id="filter0_f_722_5235" x="-576.911" y="-761.419" width="1777.44" height="1453.73" filterUnits="userSpaceOnUse" color-interpolation-filters="sRGB">
<feFlood flood-opacity="0" result="BackgroundImageFix"/>
<feBlend mode="normal" in="SourceGraphic" in2="BackgroundImageFix" result="shape"/>
<feGaussianBlur stdDeviation="55.0052" result="effect1_foregroundBlur_722_5235"/>
</filter>
<filter id="filter1_f_722_5235" x="-295.233" y="-10.69" width="1770.72" height="1276.01" filterUnits="userSpaceOnUse" color-interpolation-filters="sRGB">
<feFlood flood-opacity="0" result="BackgroundImageFix"/>
<feBlend mode="normal" in="SourceGraphic" in2="BackgroundImageFix" result="shape"/>
<feGaussianBlur stdDeviation="55.0052" result="effect1_foregroundBlur_722_5235"/>
</filter>
<clipPath id="clip0_722_5235">
<rect width="1318" height="1063" fill="white" transform="translate(0 -57)"/>
</clipPath>
</defs>
</svg>
