<svg width="38" height="38" viewBox="0 0 38 38" fill="none" xmlns="http://www.w3.org/2000/svg">
<rect width="38" height="38" rx="19" fill="#F0F5FA"/>
<mask id="path-2-outside-1_1229_1693" maskUnits="userSpaceOnUse" x="14.3999" y="10" width="11" height="19" fill="black">
<rect fill="white" x="14.3999" y="10" width="11" height="19"/>
<path d="M24.7314 19.3018C24.7314 19.4873 24.6943 19.6636 24.6201 19.8306C24.5521 19.9914 24.4408 20.146 24.2861 20.2944L17.1519 27.2803C16.9106 27.5153 16.6169 27.6328 16.2705 27.6328C16.0479 27.6328 15.8407 27.5771 15.6489 27.4658C15.4572 27.3545 15.3026 27.2061 15.1851 27.0205C15.0737 26.835 15.0181 26.6247 15.0181 26.3896C15.0181 26.0495 15.1479 25.7464 15.4077 25.4805L21.7627 19.3018L15.4077 13.123C15.1479 12.8633 15.0181 12.5602 15.0181 12.2139C15.0181 11.985 15.0737 11.7778 15.1851 11.5923C15.3026 11.4006 15.4572 11.249 15.6489 11.1377C15.8407 11.0264 16.0479 10.9707 16.2705 10.9707C16.6169 10.9707 16.9106 11.0882 17.1519 11.3232L24.2861 18.3091C24.4346 18.4575 24.5459 18.6121 24.6201 18.7729C24.6943 18.9338 24.7314 19.11 24.7314 19.3018Z"/>
</mask>
<path d="M24.7314 19.3018C24.7314 19.4873 24.6943 19.6636 24.6201 19.8306C24.5521 19.9914 24.4408 20.146 24.2861 20.2944L17.1519 27.2803C16.9106 27.5153 16.6169 27.6328 16.2705 27.6328C16.0479 27.6328 15.8407 27.5771 15.6489 27.4658C15.4572 27.3545 15.3026 27.2061 15.1851 27.0205C15.0737 26.835 15.0181 26.6247 15.0181 26.3896C15.0181 26.0495 15.1479 25.7464 15.4077 25.4805L21.7627 19.3018L15.4077 13.123C15.1479 12.8633 15.0181 12.5602 15.0181 12.2139C15.0181 11.985 15.0737 11.7778 15.1851 11.5923C15.3026 11.4006 15.4572 11.249 15.6489 11.1377C15.8407 11.0264 16.0479 10.9707 16.2705 10.9707C16.6169 10.9707 16.9106 11.0882 17.1519 11.3232L24.2861 18.3091C24.4346 18.4575 24.5459 18.6121 24.6201 18.7729C24.6943 18.9338 24.7314 19.11 24.7314 19.3018Z" fill="#15234E"/>
<path d="M24.6201 19.8306L24.2545 19.6681L24.2517 19.6747L24.6201 19.8306ZM24.2861 20.2944L24.0091 20.0059L24.0063 20.0086L24.2861 20.2944ZM17.1519 27.2803L17.431 27.5668L17.4317 27.5661L17.1519 27.2803ZM15.1851 27.0205L14.842 27.2264L14.8471 27.2345L15.1851 27.0205ZM15.4077 25.4805L15.1288 25.1936L15.1216 25.201L15.4077 25.4805ZM21.7627 19.3018L22.0415 19.5885L22.3365 19.3018L22.0415 19.015L21.7627 19.3018ZM15.4077 13.123L15.1248 13.4059L15.1289 13.4098L15.4077 13.123ZM15.1851 11.5923L14.844 11.3832L14.8421 11.3865L15.1851 11.5923ZM17.1519 11.3232L17.4317 11.0374L17.431 11.0367L17.1519 11.3232ZM24.2861 18.3091L24.569 18.0262L24.566 18.0233L24.2861 18.3091ZM24.3314 19.3018C24.3314 19.4322 24.3057 19.5531 24.2546 19.6681L24.9856 19.993C25.0829 19.7741 25.1314 19.5424 25.1314 19.3018H24.3314ZM24.2517 19.6747C24.2091 19.7756 24.1333 19.8867 24.0091 20.0059L24.5631 20.583C24.7482 20.4053 24.8951 20.2072 24.9885 19.9864L24.2517 19.6747ZM24.0063 20.0086L16.872 26.9945L17.4317 27.5661L24.566 20.5802L24.0063 20.0086ZM16.8727 26.9938C16.7085 27.1538 16.5159 27.2328 16.2705 27.2328V28.0328C16.7178 28.0328 17.1128 27.8768 17.431 27.5668L16.8727 26.9938ZM16.2705 27.2328C16.1181 27.2328 15.9802 27.1956 15.8498 27.1199L15.4481 27.8117C15.7011 27.9586 15.9776 28.0328 16.2705 28.0328V27.2328ZM15.8498 27.1199C15.7131 27.0406 15.6057 26.9372 15.523 26.8065L14.8471 27.2345C14.9994 27.475 15.2013 27.6684 15.4481 27.8117L15.8498 27.1199ZM15.5281 26.8147C15.4572 26.6966 15.4181 26.5586 15.4181 26.3896H14.6181C14.6181 26.6907 14.6902 26.9733 14.8421 27.2263L15.5281 26.8147ZM15.4181 26.3896C15.4181 26.1641 15.4997 25.9588 15.6939 25.76L15.1216 25.201C14.7962 25.534 14.6181 25.9348 14.6181 26.3896H15.4181ZM15.6866 25.7673L22.0415 19.5885L21.4839 19.015L15.1289 25.1937L15.6866 25.7673ZM22.0415 19.015L15.6866 12.8363L15.1289 13.4098L21.4839 19.5885L22.0415 19.015ZM15.6906 12.8402C15.5008 12.6504 15.4181 12.4472 15.4181 12.2139H14.6181C14.6181 12.6732 14.7951 13.0762 15.1249 13.4059L15.6906 12.8402ZM15.4181 12.2139C15.4181 12.0532 15.4562 11.9178 15.5281 11.7981L14.8421 11.3865C14.6913 11.6378 14.6181 11.9169 14.6181 12.2139H15.4181ZM15.5261 11.8013C15.6095 11.6653 15.7163 11.5611 15.8498 11.4836L15.4481 10.7918C15.1981 10.9369 14.9957 11.1358 14.844 11.3833L15.5261 11.8013ZM15.8498 11.4836C15.9802 11.4079 16.1181 11.3707 16.2705 11.3707V10.5707C15.9776 10.5707 15.7011 10.6449 15.4481 10.7918L15.8498 11.4836ZM16.2705 11.3707C16.5159 11.3707 16.7085 11.4498 16.8727 11.6097L17.431 11.0367C17.1128 10.7267 16.7178 10.5707 16.2705 10.5707V11.3707ZM16.872 11.609L24.0063 18.5949L24.566 18.0233L17.4317 11.0374L16.872 11.609ZM24.0033 18.5919C24.1244 18.713 24.2058 18.8297 24.2569 18.9406L24.9833 18.6053C24.886 18.3946 24.7447 18.202 24.569 18.0262L24.0033 18.5919ZM24.2569 18.9406C24.3049 19.0446 24.3314 19.1631 24.3314 19.3018H25.1314C25.1314 19.057 25.0837 18.8229 24.9833 18.6053L24.2569 18.9406Z" fill="#15234E" mask="url(#path-2-outside-1_1229_1693)"/>
</svg>
