<svg width="38" height="38" viewBox="0 0 38 38" fill="none" xmlns="http://www.w3.org/2000/svg">
<rect width="38" height="38" rx="19" transform="matrix(-1 0 0 1 38 0)" fill="#F0F5FA"/>
<mask id="path-2-outside-1_1229_1695" maskUnits="userSpaceOnUse" x="12.6001" y="10" width="11" height="19" fill="black">
<rect fill="white" x="12.6001" y="10" width="11" height="19"/>
<path d="M13.2686 19.3018C13.2686 19.4873 13.3057 19.6636 13.3799 19.8306C13.4479 19.9914 13.5592 20.146 13.7139 20.2944L20.8481 27.2803C21.0894 27.5153 21.3831 27.6328 21.7295 27.6328C21.9521 27.6328 22.1593 27.5771 22.3511 27.4658C22.5428 27.3545 22.6974 27.2061 22.8149 27.0205C22.9263 26.835 22.9819 26.6247 22.9819 26.3896C22.9819 26.0495 22.8521 25.7464 22.5923 25.4805L16.2373 19.3018L22.5923 13.123C22.8521 12.8633 22.9819 12.5602 22.9819 12.2139C22.9819 11.985 22.9263 11.7778 22.8149 11.5923C22.6974 11.4006 22.5428 11.249 22.3511 11.1377C22.1593 11.0264 21.9521 10.9707 21.7295 10.9707C21.3831 10.9707 21.0894 11.0882 20.8481 11.3232L13.7139 18.3091C13.5654 18.4575 13.4541 18.6121 13.3799 18.7729C13.3057 18.9338 13.2686 19.11 13.2686 19.3018Z"/>
</mask>
<path d="M13.2686 19.3018C13.2686 19.4873 13.3057 19.6636 13.3799 19.8306C13.4479 19.9914 13.5592 20.146 13.7139 20.2944L20.8481 27.2803C21.0894 27.5153 21.3831 27.6328 21.7295 27.6328C21.9521 27.6328 22.1593 27.5771 22.3511 27.4658C22.5428 27.3545 22.6974 27.2061 22.8149 27.0205C22.9263 26.835 22.9819 26.6247 22.9819 26.3896C22.9819 26.0495 22.8521 25.7464 22.5923 25.4805L16.2373 19.3018L22.5923 13.123C22.8521 12.8633 22.9819 12.5602 22.9819 12.2139C22.9819 11.985 22.9263 11.7778 22.8149 11.5923C22.6974 11.4006 22.5428 11.249 22.3511 11.1377C22.1593 11.0264 21.9521 10.9707 21.7295 10.9707C21.3831 10.9707 21.0894 11.0882 20.8481 11.3232L13.7139 18.3091C13.5654 18.4575 13.4541 18.6121 13.3799 18.7729C13.3057 18.9338 13.2686 19.11 13.2686 19.3018Z" fill="#15234E"/>
<path d="M13.3799 19.8306L13.7455 19.6681L13.7483 19.6747L13.3799 19.8306ZM13.7139 20.2944L13.9909 20.0059L13.9937 20.0086L13.7139 20.2944ZM20.8481 27.2803L20.569 27.5668L20.5683 27.5661L20.8481 27.2803ZM22.8149 27.0205L23.158 27.2264L23.1529 27.2345L22.8149 27.0205ZM22.5923 25.4805L22.8712 25.1936L22.8784 25.201L22.5923 25.4805ZM16.2373 19.3018L15.9585 19.5885L15.6635 19.3018L15.9585 19.015L16.2373 19.3018ZM22.5923 13.123L22.8752 13.4059L22.8711 13.4098L22.5923 13.123ZM22.8149 11.5923L23.156 11.3832L23.1579 11.3865L22.8149 11.5923ZM20.8481 11.3232L20.5683 11.0374L20.569 11.0367L20.8481 11.3232ZM13.7139 18.3091L13.431 18.0262L13.434 18.0233L13.7139 18.3091ZM13.6686 19.3018C13.6686 19.4322 13.6943 19.5531 13.7454 19.6681L13.0144 19.993C12.9171 19.7741 12.8686 19.5424 12.8686 19.3018H13.6686ZM13.7483 19.6747C13.7909 19.7756 13.8667 19.8867 13.9909 20.0059L13.4369 20.583C13.2518 20.4053 13.1049 20.2072 13.0115 19.9864L13.7483 19.6747ZM13.9937 20.0086L21.128 26.9945L20.5683 27.5661L13.434 20.5802L13.9937 20.0086ZM21.1273 26.9938C21.2915 27.1538 21.4841 27.2328 21.7295 27.2328V28.0328C21.2822 28.0328 20.8872 27.8768 20.569 27.5668L21.1273 26.9938ZM21.7295 27.2328C21.8819 27.2328 22.0198 27.1956 22.1502 27.1199L22.5519 27.8117C22.2989 27.9586 22.0224 28.0328 21.7295 28.0328V27.2328ZM22.1502 27.1199C22.2869 27.0406 22.3943 26.9372 22.477 26.8065L23.1529 27.2345C23.0006 27.475 22.7987 27.6684 22.5519 27.8117L22.1502 27.1199ZM22.4719 26.8147C22.5428 26.6966 22.5819 26.5586 22.5819 26.3896H23.3819C23.3819 26.6907 23.3098 26.9733 23.1579 27.2263L22.4719 26.8147ZM22.5819 26.3896C22.5819 26.1641 22.5003 25.9588 22.3061 25.76L22.8784 25.201C23.2038 25.534 23.3819 25.9348 23.3819 26.3896H22.5819ZM22.3134 25.7673L15.9585 19.5885L16.5161 19.015L22.8711 25.1937L22.3134 25.7673ZM15.9585 19.015L22.3134 12.8363L22.8711 13.4098L16.5161 19.5885L15.9585 19.015ZM22.3094 12.8402C22.4992 12.6504 22.5819 12.4472 22.5819 12.2139H23.3819C23.3819 12.6732 23.2049 13.0762 22.8751 13.4059L22.3094 12.8402ZM22.5819 12.2139C22.5819 12.0532 22.5438 11.9178 22.4719 11.7981L23.1579 11.3865C23.3087 11.6378 23.3819 11.9169 23.3819 12.2139H22.5819ZM22.4739 11.8013C22.3905 11.6653 22.2837 11.5611 22.1502 11.4836L22.5519 10.7918C22.8019 10.9369 23.0043 11.1358 23.156 11.3833L22.4739 11.8013ZM22.1502 11.4836C22.0198 11.4079 21.8819 11.3707 21.7295 11.3707V10.5707C22.0224 10.5707 22.2989 10.6449 22.5519 10.7918L22.1502 11.4836ZM21.7295 11.3707C21.4841 11.3707 21.2915 11.4498 21.1273 11.6097L20.569 11.0367C20.8872 10.7267 21.2822 10.5707 21.7295 10.5707V11.3707ZM21.128 11.609L13.9937 18.5949L13.434 18.0233L20.5683 11.0374L21.128 11.609ZM13.9967 18.5919C13.8756 18.713 13.7942 18.8297 13.7431 18.9406L13.0167 18.6053C13.114 18.3946 13.2553 18.202 13.431 18.0262L13.9967 18.5919ZM13.7431 18.9406C13.6951 19.0446 13.6686 19.1631 13.6686 19.3018H12.8686C12.8686 19.057 12.9163 18.8229 13.0167 18.6053L13.7431 18.9406Z" fill="#15234E" mask="url(#path-2-outside-1_1229_1695)"/>
</svg>
