<svg width="479" height="823" viewBox="0 0 479 823" fill="none" xmlns="http://www.w3.org/2000/svg">
<g filter="url(#filter0_f_1003_7322)">
<path d="M699.63 36.4003C695.062 0.70855 546.744 -9.71828 368.351 13.1113C189.958 35.9409 70.5072 -29.8628 -4.19165 1.09505C-70.6142 88.6686 206.499 165.192 384.892 142.363C563.284 119.533 704.197 72.092 699.63 36.4003Z" fill="#F0ECEE"/>
<path d="M702.535 59.1095C697.967 23.4178 549.648 12.9909 371.256 35.8206C101.481 95.2685 57.6601 -10.014 9.40291 39.5895C-31.2479 56.4367 38.5467 221.334 387.796 165.072C566.189 142.242 707.102 94.8012 702.535 59.1095Z" fill="#FEEEF2"/>
<path d="M706.106 87.0558C701.539 51.364 553.22 40.9372 374.827 63.7668C196.435 86.5964 -48.3769 79.4539 -66.7258 128.113C-90.3761 190.831 212.975 215.848 391.368 193.018C569.761 170.188 710.674 122.747 706.106 87.0558Z" fill="#FEDDE5"/>
<path d="M710.909 110.585C706.342 74.8936 547.619 65.7984 369.226 88.628C190.833 111.458 49.9202 158.898 54.4878 194.59C59.0554 230.282 276.064 262.095 408.007 391.67C722.416 395.815 811.135 399.844 710.909 110.585Z" fill="#C9DAFD"/>
<path d="M514.093 177.018C477.761 145.714 437.412 124.454 328.646 122.331C266.749 121.123 40.67 222.123 45.2376 257.815C49.8052 293.506 233.969 267.481 365.912 397.056C650.58 469.281 653.293 296.953 514.093 177.018Z" fill="#D3E5FF"/>
<path d="M456.119 286.465C445.276 201.737 193.633 167.138 87.7463 180.688C-18.1401 194.239 61.8273 250.809 72.6702 335.536C83.5131 420.264 178.141 477.964 284.028 464.414C683.454 441.997 466.962 371.193 456.119 286.465Z" fill="#D1EAFB"/>
</g>
<g filter="url(#filter1_f_1003_7322)">
<path d="M656.997 454.038C667.365 412.096 527.708 341.497 345.065 296.35C162.422 251.204 73.7536 129.802 -11.5988 134.957C-112.396 207.051 124.878 403.09 307.521 448.237C490.164 493.383 646.63 495.981 656.997 454.038Z" fill="#F0ECEE"/>
<path d="M650.398 480.721C660.765 438.779 521.109 368.179 338.466 323.033C51.9275 282.782 53.0495 147.016 -14.3671 183.63C-60.8156 186.435 -61.4458 399.539 300.922 474.919C483.565 520.066 640.03 522.663 650.398 480.721Z" fill="#FEEEF2"/>
<path d="M642.268 513.558C652.636 471.616 512.979 401.017 330.336 355.87C147.693 310.724 -86.9965 205.513 -124.988 252.938C-173.956 314.065 110.149 462.61 292.792 507.756C475.435 552.903 631.901 555.5 642.268 513.558Z" fill="#FEDDE5"/>
<path d="M637.178 541.92C647.545 499.978 497.236 426.746 314.593 381.599C131.951 336.453 -24.5152 333.855 -34.8827 375.797C-45.2501 417.74 152.219 539.651 226.568 737.711C530.063 867.179 614.516 906.926 637.178 541.92Z" fill="#C9DAFD"/>
<path d="M418.566 538.486C396.278 488.867 365.926 448.947 261.222 403.385C201.636 377.456 -59.7165 401.269 -70.084 443.212C-80.4515 485.154 109.119 528.998 183.468 727.058C429.858 921.264 503.957 728.588 418.566 538.486Z" fill="#D3E5FF"/>
<path d="M316.9 638.524C341.512 538.959 111.576 400.166 3.1672 373.369C-105.242 346.572 -51.0729 441.918 -75.684 541.483C-100.295 641.049 -32.3632 743.486 76.046 770.283C473.086 903.636 292.289 738.09 316.9 638.524Z" fill="#E2F3FF"/>
</g>
<defs>
<filter id="filter0_f_1003_7322" x="-176.998" y="-116.319" width="1036.09" height="691.672" filterUnits="userSpaceOnUse" color-interpolation-filters="sRGB">
<feFlood flood-opacity="0" result="BackgroundImageFix"/>
<feBlend mode="normal" in="SourceGraphic" in2="BackgroundImageFix" result="shape"/>
<feGaussianBlur stdDeviation="54.4833" result="effect1_foregroundBlur_1003_7322"/>
</filter>
<filter id="filter1_f_1003_7322" x="-282.998" y="-17.6269" width="1092.96" height="1000.08" filterUnits="userSpaceOnUse" color-interpolation-filters="sRGB">
<feFlood flood-opacity="0" result="BackgroundImageFix"/>
<feBlend mode="normal" in="SourceGraphic" in2="BackgroundImageFix" result="shape"/>
<feGaussianBlur stdDeviation="76.2121" result="effect1_foregroundBlur_1003_7322"/>
</filter>
</defs>
</svg>
