<svg width="1920" height="988" viewBox="0 0 1920 988" fill="none" xmlns="http://www.w3.org/2000/svg">
<g filter="url(#filter0_f_722_6558)">
<path d="M1851.41 -342.076C1840.3 -428.917 1479.43 -454.286 1045.38 -398.74C611.333 -343.193 15.6833 -360.572 -28.9611 -242.179C-86.5046 -89.5802 651.579 -28.7127 1085.63 -84.2593C1519.67 -139.806 1862.53 -255.234 1851.41 -342.076Z" fill="#FEDDE5"/>
<path d="M1863.1 -284.826C1851.99 -371.667 1465.8 -393.797 1031.75 -338.25C597.706 -282.704 254.851 -167.276 265.964 -80.4341C277.077 6.40729 805.08 83.8118 1126.11 399.079C1891.1 409.165 2106.96 418.968 1863.1 -284.826Z" fill="#C9DAFD"/>
<path d="M1384.23 -123.19C1295.83 -199.355 1197.66 -251.084 933.019 -256.248C782.418 -259.188 232.345 -13.4449 243.458 73.3965C254.572 160.238 702.66 96.9162 1023.69 412.184C1716.31 587.915 1722.92 168.623 1384.23 -123.19Z" fill="#D3E5FF"/>
<path d="M1243.17 143.105C1216.79 -63.0457 604.52 -147.229 346.888 -114.259C89.256 -81.289 283.824 56.3498 310.206 262.5C336.588 468.651 566.827 609.041 824.459 576.071C1796.3 521.531 1269.56 349.255 1243.17 143.105Z" fill="#D1EAFB"/>
</g>
<g filter="url(#filter1_f_722_6558)">
<path d="M1731.92 550.828C1757.14 448.779 1417.34 277.004 972.957 167.158C528.569 57.3121 312.83 -238.07 105.159 -225.529C-140.089 -50.1169 437.221 426.866 881.609 536.712C1326 646.557 1706.69 652.878 1731.92 550.828Z" fill="#F0ECEE"/>
<path d="M1715.86 615.75C1741.09 513.7 1401.29 341.925 956.899 232.079C259.724 134.146 262.454 -196.187 98.4231 -107.101C-14.5907 -100.276 -16.124 418.226 865.551 601.633C1309.94 711.479 1690.64 717.799 1715.86 615.75Z" fill="#FEEEF2"/>
<path d="M1696.08 695.646C1721.31 593.596 1381.51 421.821 937.124 311.975C492.736 202.13 -78.2863 -53.8572 -170.723 61.5321C-289.867 210.261 401.388 571.684 845.776 681.529C1290.16 791.375 1670.86 797.695 1696.08 695.646Z" fill="#FEDDE5"/>
<path d="M1683.7 764.654C1708.92 662.604 1343.21 484.423 898.818 374.577C454.43 264.732 73.7343 258.411 48.5092 360.461C23.2841 462.51 503.745 759.133 684.644 1241.03C1423.07 1556.04 1628.56 1652.75 1683.7 764.654Z" fill="#C9DAFD"/>
<path d="M1151.79 756.297C1097.57 635.571 1023.72 538.441 768.961 427.584C623.983 364.497 -11.9124 422.436 -37.1375 524.486C-62.3626 626.535 398.881 733.213 579.78 1215.11C1179.27 1687.63 1359.56 1218.83 1151.79 756.297Z" fill="#D3E5FF"/>
<path d="M904.432 999.699C964.314 757.447 404.859 419.751 141.089 354.551C-122.681 289.351 9.11807 521.337 -50.7631 763.59C-110.644 1005.84 54.6405 1255.08 318.41 1320.28C1284.45 1644.74 844.551 1241.95 904.432 999.699Z" fill="#E2F3FF"/>
</g>
<defs>
<filter id="filter0_f_722_6558" x="-141.233" y="-680.878" width="2208.84" height="1370.85" filterUnits="userSpaceOnUse" color-interpolation-filters="sRGB">
<feFlood flood-opacity="0" result="BackgroundImageFix"/>
<feBlend mode="normal" in="SourceGraphic" in2="BackgroundImageFix" result="shape"/>
<feGaussianBlur stdDeviation="54.5484" result="effect1_foregroundBlur_722_6558"/>
</filter>
<filter id="filter1_f_722_6558" x="-336.92" y="-378.522" width="2222.76" height="1996.78" filterUnits="userSpaceOnUse" color-interpolation-filters="sRGB">
<feFlood flood-opacity="0" result="BackgroundImageFix"/>
<feBlend mode="normal" in="SourceGraphic" in2="BackgroundImageFix" result="shape"/>
<feGaussianBlur stdDeviation="76.3032" result="effect1_foregroundBlur_722_6558"/>
</filter>
</defs>
</svg>
